<?xml version="1.0" encoding="utf-8"?>
<!-- Generator: Adobe Illustrator 21.1.0, SVG Export Plug-In . SVG Version: 6.00 Build 0)  -->
<svg version="1.1" id="Layer_1" xmlns="http://www.w3.org/2000/svg" xmlns:xlink="http://www.w3.org/1999/xlink" x="0px" y="0px"
	 viewBox="0 0 60 60" style="enable-background:new 0 0 60 60;" xml:space="preserve">
<style type="text/css">
	.st0{fill:#63D1BB;}
</style>
<path class="st0" d="M30.2,0H30L6.4,2.5V46L30,60l23.6-14V2.5C53.6,2.5,30.2,0,30.2,0z M50.6,44.2L30,56.4L9.4,44.2V26.4l20.5,12.2
	v2.2l-14-8.4v2.2L30,43.1v2.3L15.8,37v2.2L30,47.5L44.3,39v-9.1l6.4-3.8V44.2z M50.5,23.8l-5.6,3.4l-2.6,1.6l-12.4-7.3v2.2l10.6,6.4
	h-0.1L40.1,30l-1.6,0.8l-8.8-5.2v2.2l7,4.1L35,33l-5.2-3.1V32l3.5,2l-3.5,2L9.5,24l20.4-12.2C29.9,11.8,50.5,23.8,50.5,23.8z
	 M50.6,21.6L29.9,9.4L9.4,21.6V5.3L30,3.1l20.6,2.2C50.6,5.3,50.6,21.6,50.6,21.6z"/>
</svg>
